<svg xmlns="http://www.w3.org/2000/svg" style="position:absolute; width: 0; height: 0"><symbol viewBox="0 0 1792 1792" id="icon-angle-left"><path d="M1203 544q0 13-10 23L800 960l393 393q10 10 10 23t-10 23l-50 50q-10 10-23 10t-23-10L631 983q-10-10-10-23t10-23l466-466q10-10 23-10t23 10l50 50q10 10 10 23z"></path></symbol><symbol viewBox="0 0 1792 1792" id="icon-angle-right"><path d="M1171 960q0 13-10 23l-466 466q-10 10-23 10t-23-10l-50-50q-10-10-10-23t10-23l393-393-393-393q-10-10-10-23t10-23l50-50q10-10 23-10t23 10l466 466q10 10 10 23z"></path></symbol><symbol viewBox="0 0 1792 1792" id="icon-check"><path d="M1671 566q0 40-28 68l-724 724-136 136q-28 28-68 28t-68-28l-136-136-362-362q-28-28-28-68t28-68l136-136q28-28 68-28t68 28l294 295 656-657q28-28 68-28t68 28l136 136q28 28 28 68z"></path></symbol><symbol viewBox="0 0 1792 1792" id="icon-external-link-square"><path d="M1408 928V448q0-26-19-45t-45-19H864q-42 0-59 39-17 41 14 70l144 144-534 534q-19 19-19 45t19 45l102 102q19 19 45 19t45-19l534-534 144 144q18 19 45 19 12 0 25-5 39-17 39-59zm256-512v960q0 119-84.5 203.5T1376 1664H416q-119 0-203.5-84.5T128 1376V416q0-119 84.5-203.5T416 128h960q119 0 203.5 84.5T1664 416z"></path></symbol><symbol viewBox="0 0 24 24" id="icon-search"><path d="M23.707 22.293l-5.969-5.969A9.951 9.951 0 0 0 20 10c0-5.514-4.486-10-10-10S0 4.486 0 10s4.486 10 10 10c2.397 0 4.6-.85 6.324-2.262l5.969 5.969a.997.997 0 0 0 1.414 0 .999.999 0 0 0 0-1.414zM1 10c0-4.971 4.029-9 9-9s9 4.029 9 9-4.029 9-9 9-9-4.029-9-9z"></path></symbol><symbol viewBox="0 0 16 16" id="icon-star"><path d="M12.035 5.411c-.422-.066-.968-.075-1.291-.233-.557-.271-1.15-1.942-1.43-2.52C8.868 1.74 8.512.732 8.022 0h-.091C7.365 1.011 6.636 2.626 6.04 3.918c-.202.438-.421.98-.69 1.167-.551.379-1.938.397-2.674.513-.946.146-1.873.211-2.676.466.052.465.504.789.83 1.119.697.707 1.253 1.268 2.029 2.053.326.331.842.69.922 1.072.094.453-.104.973-.184 1.447-.229 1.357-.475 2.838-.602 4.197.493.047.85-.344 1.245-.559.801-.436 1.52-.82 2.397-1.308.417-.231.895-.547 1.292-.56.746-.023 1.936.877 2.536 1.213.867.484 1.571.914 2.444 1.26.082-.908-.167-1.832-.323-2.8-.072-.446-.154-.925-.23-1.398-.072-.455-.264-1.017-.184-1.446.114-.629 1.469-1.72 1.891-2.146.73-.736 1.433-1.266 1.937-2.097-1.239-.401-2.547-.477-3.965-.7z"></path></symbol><symbol viewBox="0 0 1792 1792" id="icon-times"><path d="M1490 1322q0 40-28 68l-136 136q-28 28-68 28t-68-28l-294-294-294 294q-28 28-68 28t-68-28l-136-136q-28-28-28-68t28-68l294-294-294-294q-28-28-28-68t28-68l136-136q28-28 68-28t68 28l294 294 294-294q28-28 68-28t68 28l136 136q28 28 28 68t-28 68l-294 294 294 294q28 28 28 68z"></path></symbol></svg>